<?xml version="1.0" encoding="utf-8"?>
<!-- Generator: Adobe Illustrator 23.0.1, SVG Export Plug-In . SVG Version: 6.00 Build 0)  -->
<svg version="1.1" id="Layer_1" xmlns="http://www.w3.org/2000/svg" xmlns:xlink="http://www.w3.org/1999/xlink" x="0px" y="0px"
	 viewBox="0 0 160 160" style="enable-background:new 0 0 160 160;" xml:space="preserve">
<circle cx="39.7" cy="49.9" r="15.7"/>
<circle cx="119.7" cy="49.9" r="15.7"/>
<path d="M79.9,136.3c-26.5,0-44.3-19.6-56.9-41c0,0-2.8-4.8,0.9-6.7c3.1-1.6,7.6,6.6,9.8,9.1c8.3,9.7,24.7,21.7,46.2,21.7"/>
<path d="M79,136.3c26.5,0,44.3-19.6,56.9-41c0,0,2.8-4.8-0.9-6.7c-3.1-1.6-7.6,6.6-9.8,9.1c-8.3,9.7-24.7,21.7-46.2,21.7"/>
</svg>
